HIERARCHY
ROOT Hips
{
 OFFSET 0.000000 0.000000 0.000000
 CHANNELS 6 Xposition Yposition Zposition Yrotation Xrotation Zrotation
 JOINT Chest
 {
  OFFSET 0.000000 10.388337 0.005184
  CHANNELS 3 Yrotation Xrotation Zrotation
  JOINT Chest2
  {
   OFFSET 0.000000 10.458247 -0.010579
   CHANNELS 3 Yrotation Xrotation Zrotation
   JOINT Chest3
   {
    OFFSET 0.000000 10.415828 0.000000
    CHANNELS 3 Yrotation Xrotation Zrotation
    JOINT Chest4
    {
     OFFSET 0.000000 10.405206 0.000000
     CHANNELS 3 Yrotation Xrotation Zrotation
     JOINT Neck
     {
      OFFSET 0.000000 15.720090 0.000000
      CHANNELS 3 Yrotation Xrotation Zrotation
      JOINT Head
      {
       OFFSET 0.000000 9.732643 -0.022378
       CHANNELS 3 Yrotation Xrotation Zrotation
       End Site
       {
        OFFSET 0.000000 18.603619 -0.011814
       }
      }
     }
     JOINT RightCollar
     {
      OFFSET -3.167735 10.388953 0.000000
      CHANNELS 3 Yrotation Xrotation Zrotation
      JOINT RightShoulder
      {
       OFFSET -14.584825 0.000000 0.000000
       CHANNELS 3 Yrotation Xrotation Zrotation
       JOINT RightElbow
       {
        OFFSET 0.000000 -31.921689 0.000000
        CHANNELS 3 Yrotation Xrotation Zrotation
        JOINT RightWrist
        {
         OFFSET 0.000000 -25.835217 0.000000
         CHANNELS 3 Yrotation Xrotation Zrotation
         End Site
         {
          OFFSET 0.000000 -19.128920 0.000000
         }
        }
       }
      }
     }
     JOINT LeftCollar
     {
      OFFSET 3.167735 10.388953 0.000000
      CHANNELS 3 Yrotation Xrotation Zrotation
      JOINT LeftShoulder
      {
       OFFSET 14.584825 0.000000 0.000000
       CHANNELS 3 Yrotation Xrotation Zrotation
       JOINT LeftElbow
       {
        OFFSET 0.000000 -31.921689 0.000000
        CHANNELS 3 Yrotation Xrotation Zrotation
        JOINT LeftWrist
        {
         OFFSET 0.000000 -25.835217 0.000000
         CHANNELS 3 Yrotation Xrotation Zrotation
         End Site
         {
          OFFSET 0.000000 -19.128920 0.000000
         }
        }
       }
      }
     }
    }
   }
  }
 }
 JOINT RightHip
 {
  OFFSET -8.403278 -0.025659 -0.002592
  CHANNELS 3 Yrotation Xrotation Zrotation
  JOINT RightKnee
  {
   OFFSET 0.000000 -44.040977 0.002477
   CHANNELS 3 Yrotation Xrotation Zrotation
   JOINT RightAnkle
   {
    OFFSET 0.000000 -42.951162 0.004189
    CHANNELS 3 Yrotation Xrotation Zrotation
    JOINT RightToe
    {
     OFFSET 0.000000 -5.494238 12.197485
     CHANNELS 3 Yrotation Xrotation Zrotation
     End Site
     {
      OFFSET 0.000000 -1.538716 6.371628
     }
    }
   }
  }
 }
 JOINT LeftHip
 {
  OFFSET 8.403278 -0.025659 -0.002592
  CHANNELS 3 Yrotation Xrotation Zrotation
  JOINT LeftKnee
  {
   OFFSET 0.000000 -44.040977 0.002477
   CHANNELS 3 Yrotation Xrotation Zrotation
   JOINT LeftAnkle
   {
    OFFSET 0.000000 -42.951162 0.004189
    CHANNELS 3 Yrotation Xrotation Zrotation
    JOINT LeftToe
    {
     OFFSET 0.000000 -5.494238 12.197485
     CHANNELS 3 Yrotation Xrotation Zrotation
     End Site
     {
      OFFSET 0.000000 -1.538716 6.371628
     }
    }
   }
  }
 }
}
MOTION
Frames: 5
Frame Time: 0.008333
103.240734 74.072834 361.971374 175.887186 -8.871745 0.937697 1.717823 7.228439 -6.130596 0.014847 0.349628 -0.524303 0.023633 0.603755 -0.905216 -0.114771 5.265261 -7.904762 -12.069594 14.345911 12.853788 -26.917585 -4.792495 28.116681 8.021783 -6.240788 -18.333632 21.730150 -27.295443 -69.769358 -7.132187 -4.617077 -7.385741 -18.729128 -4.933213 -11.747525 -0.311030 -4.534493 12.061236 -21.837609 -6.954353 41.778059 -22.829965 -43.866289 -28.657923 -7.765537 19.475440 -4.342689 -6.889080 -32.340093 -24.811461 -1.448556 37.967836 -1.185140 -1.053031 2.561325 18.141533 -0.204793 -5.220988 -3.692651 12.923548 12.083451 39.026879 14.213441 24.875972 8.935689 0.027446 6.965381 -12.534297 2.331866 -7.606645 -18.705299
104.317447 74.656897 361.631202 175.850508 -9.360144 1.749603 1.812783 7.524607 -6.414914 0.029758 0.357580 -0.498199 0.049476 0.617987 -0.860669 0.117638 5.476857 -7.608764 -12.246886 14.564863 12.531367 -27.079190 -4.449853 27.514502 9.896190 -5.986232 -18.516371 25.535195 -24.652696 -70.173369 -10.507062 -0.421043 -12.574140 -18.485357 -3.594949 -12.936560 -0.536355 -4.008052 11.871589 -23.004956 -6.828863 41.647986 -22.196275 -43.550411 -27.534081 -7.760562 19.465039 -4.830523 -6.815104 -32.046289 -24.932365 -1.556548 38.770683 -1.447092 -0.838415 2.474359 17.541865 -0.257847 -4.593534 -2.936287 10.839427 11.758067 37.135777 12.348092 28.626261 8.525781 2.196052 6.278155 -9.947804 1.856225 -7.103117 -14.548720
105.385623 75.298766 361.358902 175.982014 -9.350515 2.452287 1.971785 7.600677 -6.570367 0.048835 0.358149 -0.469769 0.082623 0.619617 -0.812207 0.430759 5.608391 -7.298636 -12.420227 14.697354 12.209933 -27.261134 -4.262661 26.939914 11.537351 -5.899413 -18.449656 27.172947 -22.609260 -69.560258 -12.679569 1.114877 -17.488807 -17.142042 -2.461122 -15.067609 -0.803246 -3.559033 11.646446 -24.119373 -6.853961 41.333722 -21.552746 -43.241223 -26.259160 -7.615543 19.320247 -5.136656 -6.240772 -31.795169 -25.068752 -1.480993 39.298160 -1.476026 -1.406883 2.449328 17.108857 -0.257713 -4.099807 -2.301686 8.741831 10.809304 35.214658 11.278643 32.128350 8.170772 4.003859 5.285963 -8.678709 1.386119 -6.255296 -10.258493
106.446260 76.002605 361.098543 176.207327 -9.092382 3.076461 2.196544 7.627034 -6.552993 0.062352 0.350301 -0.442631 0.106249 0.606753 -0.766061 0.674196 5.626816 -7.028052 -12.503768 14.737165 11.866669 -27.301603 -4.278080 26.328578 12.794114 -5.910262 -18.190001 27.003663 -22.479057 -69.214106 -11.687312 1.492160 -20.676193 -15.437225 -0.915687 -18.306716 -0.878057 -3.087640 11.364053 -24.918243 -7.160792 40.855427 -20.923070 -42.978007 -25.061866 -7.304949 18.894855 -5.143390 -5.251566 -31.365680 -25.175735 -1.083798 39.524570 -1.310268 -2.658585 2.397447 16.934585 -0.234318 -3.662278 -1.800712 6.973460 9.467870 33.528227 11.339533 35.216061 8.049747 4.920236 4.020787 -8.408826 1.092888 -5.134356 -6.283313
107.496548 76.766360 360.823183 176.587194 -8.693726 3.642228 2.284181 7.574130 -6.393209 0.063502 0.336623 -0.417592 0.108518 0.583788 -0.723619 0.731298 5.558394 -6.810777 -12.427872 14.692547 11.480349 -27.063836 -4.510346 25.618232 13.811276 -5.918763 -17.923855 25.730999 -24.482085 -69.344938 -7.663601 1.913320 -22.052089 -14.628930 1.433501 -21.986839 -0.560090 -2.563239 10.973240 -25.099533 -7.773170 40.292095 -20.359587 -42.887360 -24.175558 -6.818496 18.149098 -4.807927 -4.089602 -30.723357 -25.289550 -0.446025 39.458234 -0.959529 -4.324431 2.274429 16.942397 -0.206621 -3.240558 -1.414469 5.676991 7.778316 32.156326 12.573292 37.870894 8.388125 4.714951 2.476174 -8.657254 1.030377 -3.800474 -3.034529
